# xmcd CD database file
#
# Track frame offsets:
#	215
#	13892
#	24259
#	36670
#	64757
#	103684
#	120302
#	138180
#	176017
#
# Disc length: 2774 seconds
#
# Revision: 0
# Processed by: cddbd v1.5.2PL0 Copyright (c) Steve Scherf et al.
# Submitted via: CDex 1.51
#
DISCID=740ad409
DTITLE=Let´s Jazz Em Público (Colecção) - Let's Jazz Em Público 14 - Miles Davis
DYEAR=2005
DGENRE=Jazz
TTITLE0=Focus
TTITLE1=Israel
TTITLE2=Au Privave
TTITLE3=Move
TTITLE4=The Squirrell
TTITLE5=Take Off
TTITLE6=Dîner Au Motel
TTITLE7=One For Daddy-O
TTITLE8=You Won't Forget Me
EXTD=YEAR: 2005
EXTT0=
EXTT1=
EXTT2=
EXTT3=
EXTT4=
EXTT5=
EXTT6=
EXTT7=
EXTT8=
PLAYORDER=
